<?xml version="1.0" encoding="UTF-8"?>
<svg id="logo_en" xmlns="http://www.w3.org/2000/svg" viewBox="0 0 648 479.52">
  <defs>
    <style>
      .cls-1 {
        fill: #3b3b3b;
      }
    </style>
  </defs>
  <g>
    <path class="cls-1" d="M477.161,112.149c-9.8076-16.0505-17.9456-32.9084-19.9946-37.2332-.1803-.3806-.728-.3504-.8594.0497-1.501,4.5683-7.4984,22.5035-14.6637,39.6526-.1335.3196.115.6666.4605.6426l11.3941-.7903c-2.2505,48.3729-28.9324,94.8283-70.5529,120.051-59.4056,36.723-141.56,29.7074-184.6986-28.3597-31.9152-41.2535-32.2041-102.1259-.7486-143.7499C239.1677,4.3631,325.6029-7.2399,382.1068,35.9143c27.8923,20.6789,46.7501,53.1905,49.7645,87.9088.2111,1.9077,3.0415,1.684,2.9381-.253-2.7778-35.662-21.8906-69.2443-50.3699-90.742C326.199-12.4306,236.6202-.7895,192.9091,59.0169c-33.4884,43.4998-33.5649,107.6681-.3507,151.3739,39.0873,53.5927,110.704,67.6104,170.7468,43.7204,57.8947-22.0097,97.6868-78.9221,100.4794-140.3542l13.0135-.9026c.3483-.0241.5451-.4077.3631-.7056Z"/>
    <g>
      <path class="cls-1" d="M251.8695,167.288v62.5228c-16.9545-9.0054-31.2421-22.3783-41.3684-38.5984v-23.9244h41.3684Z"/>
      <path class="cls-1" d="M298.9452,141.1864v101.2372c-14.7256-.5154-28.704-3.981-41.3813-9.7914v-91.4459h41.3813Z"/>
      <path class="cls-1" d="M346.0209,109.4805v124.1438c-12.7158,5.5012-26.6943,8.6318-41.3813,8.8508V109.4805h41.3813Z"/>
      <path class="cls-1" d="M393.0966,74.8243v119.815c-10.4226,15.3827-24.6716,27.9439-41.3941,36.331V74.8243h41.3941Z"/>
    </g>
  </g>
  <g>
    <path class="cls-1" d="M4.8476,286.2666h18.4795v131.7119H4.8476v-131.7119ZM13.8156,286.2666h75.6392v17.5737H13.8156v-17.5737ZM13.8156,343.7886h65.6748v17.5737H13.8156v-17.5737ZM13.8156,400.4048h75.6392v17.5737H13.8156v-17.5737Z"/>
    <path class="cls-1" d="M99.9993,323.9503h18.4795v94.0282h-18.4795v-94.0282ZM157.0684,361c0-6.6423-1.7211-11.7762-5.1634-15.3996s-8.2748-5.4352-14.4937-5.4352c-6.0397,0-10.7049,1.601-13.9955,4.8011-3.2925,3.202-4.9369,7.6998-4.9369,13.4973l-1.9023-18.1172c2.8987-5.6755,6.6876-10.055,11.3685-13.135,4.679-3.0799,9.8581-4.6199,15.5355-4.6199,10.2048,0,18.1015,3.3378,23.6882,10.0097,5.5849,6.6738,8.3792,16.1105,8.3792,28.3081v57.0691h-18.4795v-56.9785Z"/>
    <path class="cls-1" d="M205.9301,414.4457c-6.1598-3.2611-10.8565-8.0464-14.0861-14.3579-3.2315-6.3096-4.8463-13.9345-4.8463-22.8729v-10.5986c0-9.2989,1.5538-17.2409,4.6652-23.8241,3.1095-6.5813,7.6231-11.595,13.5426-15.0373,5.9177-3.4423,13.0444-5.1634,21.3783-5.1634,7.8495,0,14.5529,1.9633,20.1101,5.8881,5.5553,3.9266,9.7971,9.6021,12.7273,17.0302,2.9283,7.428,4.3934,16.3369,4.3934,26.7228v6.1598h-63.4101v-14.8561h45.8365c-.5435-7.6683-2.5226-13.6332-5.9334-17.8907-3.4127-4.2575-7.9873-6.3863-13.7238-6.3863-7.0066,0-12.426,2.2961-16.2602,6.8845-3.8361,4.5903-5.7522,11.0829-5.7522,19.476v11.9573c0,7.7904,2.052,13.7691,6.1598,17.936,4.1059,4.167,9.933,6.2504,17.4831,6.2504,3.7436,0,7.4576-.7543,11.1421-2.2646,3.6826-1.5085,6.9751-3.6234,9.8739-6.341l12.1385,12.1385c-4.6513,4.4702-9.8739,7.9263-15.6714,10.3721-5.7975,2.4458-11.6265,3.6687-17.4831,3.6687-8.6962,0-16.1243-1.6305-22.2841-4.8916Z"/>
    <path class="cls-1" d="M275.2648,323.9503h18.4795v94.0282h-18.4795v-94.0282ZM320.8295,341.7052c-2.4773-1.026-5.3446-1.54-8.6057-1.54-5.8585,0-10.4035,1.6167-13.6332,4.8463-3.2315,3.2315-4.8463,7.7155-4.8463,13.452l-1.9023-18.1172c2.8987-5.6163,6.6423-9.9783,11.2327-13.0897,4.5884-3.1095,9.6612-4.6652,15.2184-4.6652,4.2871,0,8.1666.6203,11.6403,1.857,3.4718,1.2386,6.5065,3.0661,9.1039,5.4804l-12.0479,16.3055c-1.6305-1.9929-3.6845-3.5014-6.1598-4.5293Z"/>
    <g>
      <path class="cls-1" d="M416.977,302.2097l-57.3409,98.1951h59.1526v17.5737h-81.8897v-15.9431l57.7938-98.1951h-56.1633v-17.5737h78.4474v15.9431Z"/>
      <path class="cls-1" d="M431.5978,412.1357c-5.7384-4.8011-8.6057-12.0932-8.6057-21.8765,0-9.2989,2.627-16.274,7.881-20.9253,5.254-4.6494,13.1941-6.9751,23.8241-6.9751h26.7228l1.2682,14.8561h-27.9005c-4.8325,0-8.4402,1.0732-10.825,3.2158-2.3867,2.1445-3.5781,5.4213-3.5781,9.8286,0,4.7715,1.5853,8.3043,4.7558,10.5986,3.1705,2.2961,7.9854,3.4423,14.4485,3.4423,7.0657,0,12.3335-.7543,15.8072-2.2646,3.4718-1.5085,5.2087-3.8637,5.2087-7.0657l1.9023,13.2255c-1.6305,2.5364-3.6392,4.6199-6.024,6.2504-2.3867,1.6305-5.1496,2.8535-8.2886,3.6687-3.1409.8153-6.6738,1.2229-10.5986,1.2229-11.595,0-20.2617-2.4005-25.9982-7.2016ZM480.6048,358.373c0-6.1598-1.6463-10.9452-4.9369-14.3579-3.2925-3.4108-7.9577-5.1181-13.9955-5.1181-3.7455,0-7.4142.575-11.0062,1.7211-3.5939,1.1481-6.7801,2.749-9.5568,4.8011l-13.4973-9.2398c3.5624-4.2871,8.2572-7.6231,14.0861-10.0097,5.8271-2.3848,12.304-3.5781,19.4307-3.5781,7.7904,0,14.4623,1.3745,20.0195,4.1217,5.5553,2.749,9.7833,6.7348,12.682,11.9573,2.8987,5.2244,4.3481,11.5201,4.3481,18.8872v60.4208h-17.5737v-59.6055Z"/>
      <path class="cls-1" d="M512.3464,323.9503h18.4795v94.0282h-18.4795v-94.0282ZM568.5096,361c0-6.6423-1.6305-11.7762-4.8916-15.3996-3.2611-3.6234-7.881-5.4352-13.8596-5.4352-6.0397,0-10.7049,1.601-13.9955,4.8011-3.2925,3.202-4.9369,7.6998-4.9369,13.4973l-1.9023-18.1172c2.8987-5.6755,6.6876-10.055,11.3685-13.135,4.679-3.0799,9.8581-4.6199,15.5355-4.6199,6.5813,0,12.1976,1.4947,16.849,4.484,4.6494,2.9893,8.198,7.3532,10.6438,13.0897,2.4458,5.7384,3.6687,12.6525,3.6687,20.7442v57.0691h-18.4795v-56.9785ZM624.6729,361c0-6.6423-1.7211-11.7762-5.1634-15.3996-3.4423-3.6234-8.2748-5.4352-14.4937-5.4352-5.7384,0-10.1771,1.7526-13.3161,5.254-3.1409,3.5033-4.7105,8.4559-4.7105,14.8561l-3.714-18.1172c2.9579-6.219,6.8688-11.0358,11.7309-14.4485,4.8602-3.4108,10.2205-5.1181,16.079-5.1181,6.7625,0,12.5461,1.4947,17.3472,4.484,4.8011,2.9893,8.4541,7.3532,10.9609,13.0897,2.505,5.7384,3.7593,12.6525,3.7593,20.7442v57.0691h-18.4795v-56.9785Z"/>
    </g>
  </g>
  <g>
    <path class="cls-1" d="M4.8476,437.9059h5.0496v35.9904h-5.0496v-35.9904ZM8.2634,469.0943h8.1436c2.6566,0,4.7154-.6887,6.1758-2.0669,1.4604-1.3775,2.1906-3.3206,2.1906-5.8293v-10.5942c0-2.5081-.7302-4.4512-2.1906-5.8293-1.4604-1.3775-3.5192-2.0669-6.1758-2.0669h-8.1436v-4.802h7.9951c2.8874,0,5.3546.5037,7.4011,1.5099,2.0458,1.0068,3.6052,2.4753,4.6783,4.406,1.0724,1.9307,1.6089,4.2575,1.6089,6.9803v10.1981c0,2.7228-.5365,5.0496-1.6089,6.9803-1.073,1.9307-2.6362,3.3998-4.6906,4.406-2.0545,1.0068-4.526,1.5099-7.4134,1.5099h-7.9704v-4.802Z"/>
    <path class="cls-1" d="M37.6202,437.9059h5.0496v5.0496h-5.0496v-5.0496ZM37.6202,448.203h5.0496v25.6933h-5.0496v-25.6933Z"/>
    <path class="cls-1" d="M65.467,448.203h5.2723l-9.6536,25.6933h-3.8119l-9.6536-25.6933h5.2723l6.2872,18.3418,6.2872-18.3418Z"/>
    <path class="cls-1" d="M71.8532,468.5992h5.2971v5.2971h-5.2971v-5.2971Z"/>
    <path class="cls-1" d="M101.9525,472.9557c-1.5842-.8744-2.7933-2.1492-3.6263-3.8243-.8335-1.6745-1.25-3.6919-1.25-6.052v-4.1832c0-2.3268.4165-4.3193,1.25-5.9778.8329-1.6584,2.0421-2.9208,3.6263-3.7872,1.5842-.8663,3.4901-1.2995,5.7179-1.2995s4.1337.4332,5.7179,1.2995,2.7927,2.1287,3.6263,3.7872c.8329,1.6584,1.25,3.651,1.25,5.9778v4.2575c0,2.3435-.4171,4.3441-1.25,6.0025-.8335,1.6584-2.0421,2.9252-3.6263,3.7995-1.5842.875-3.4901,1.3119-5.7179,1.3119s-4.1337-.4369-5.7179-1.3119ZM111.7669,467.8071c.9654-1.1052,1.448-2.6566,1.448-4.6535v-4.2575c0-1.9963-.4827-3.5396-1.448-4.6288s-2.3311-1.6337-4.0966-1.6337-3.1312.5446-4.0966,1.6337-1.448,2.6325-1.448,4.6288v4.2575c0,1.9969.4827,3.5483,1.448,4.6535.9654,1.1058,2.3305,1.6584,4.0966,1.6584s3.1312-.5526,4.0966-1.6584Z"/>
    <path class="cls-1" d="M123.4626,448.203h12.8467v4.307h-12.8467v-4.307ZM126.1854,444.7129c0-2.2772.5235-3.9809,1.5718-5.1114,1.0477-1.13,2.6609-1.6956,4.8392-1.6956h3.7129v4.802h-3.6139c-.479,0-.8416.1819-1.0891.5446-.2475.3632-.3713.8335-.3713,1.4109v29.233h-5.0496v-29.1834Z"/>
    <path class="cls-1" d="M160.9258,472.6958c-1.8899-1.0477-3.3292-2.5743-4.3193-4.5793-.9901-2.005-1.4852-4.4184-1.4852-7.2402v-22.9705h5.0496v23.1438c0,2.6238.6597,4.6535,1.9802,6.0892,1.3199,1.4357,3.1844,2.1535,5.5941,2.1535,2.4258,0,4.3026-.7178,5.6312-2.1535,1.328-1.4357,1.9926-3.4654,1.9926-6.0892v-23.1438h5.0496v22.9705c0,2.8218-.4951,5.2352-1.4852,7.2402-.9901,2.005-2.4344,3.5316-4.3317,4.5793-1.8979,1.0483-4.1832,1.5718-6.8565,1.5718-2.6572,0-4.9301-.5235-6.8194-1.5718Z"/>
    <path class="cls-1" d="M193.0548,472.6092c-1.8899-1.1052-3.354-2.6733-4.3936-4.703s-1.5594-4.3812-1.5594-7.0545v-9.8763c0-2.6733.5198-5.0248,1.5594-7.0545s2.5037-3.6015,4.3936-4.7154c1.8893-1.1139,4.0799-1.6708,6.5718-1.6708,2.0625,0,3.9604.4418,5.6931,1.3243,1.7327.8831,3.1807,2.1331,4.3441,3.75,1.1634,1.6176,1.9511,3.4901,2.3639,5.6189h-5.1733c-.3137-1.1219-.8379-2.1244-1.5718-3.0075-.7345-.8824-1.5965-1.5631-2.5867-2.0421-.9901-.4783-2.0136-.7178-3.0693-.7178-1.4691,0-2.7562.3552-3.8614,1.0644-1.1058.7098-1.9641,1.7042-2.5743,2.9827-.6108,1.2791-.9159,2.7686-.9159,4.4679v9.8763c0,1.6832.3051,3.1683.9159,4.4555.6102,1.2871,1.4685,2.2816,2.5743,2.9827,1.1052.7017,2.3923,1.052,3.8614,1.052,1.0724,0,2.0996-.2228,3.0817-.6683.9814-.4455,1.8397-1.1052,2.5743-1.9802.7339-.8744,1.2581-1.914,1.5718-3.1188h5.1733c-.4128,2.1287-1.2048,4.0019-2.3763,5.6189-1.172,1.6176-2.6238,2.8676-4.3565,3.75-1.7327.8831-3.6226,1.3243-5.6684,1.3243-2.492,0-4.6826-.5526-6.5718-1.6584Z"/>
    <path class="cls-1" d="M216.7308,448.203h11.5843v4.5545h-11.5843v-4.5545ZM220.8274,472.2998c-.9654-1.1467-1.448-2.8422-1.448-5.0867v-26.4854h5.0496v26.5349c0,.6275.1238,1.1102.3713,1.448.2475.3385.6102.5074,1.0891.5074h2.4258v4.802h-2.9208c-2.0792,0-3.6015-.573-4.5669-1.7203Z"/>
    <path class="cls-1" d="M235.2458,448.203h5.0496v25.6933h-5.0496v-25.6933ZM247.6964,453.0545c-.677-.2803-1.4604-.4208-2.3515-.4208-1.6009,0-2.8428.4418-3.7253,1.3243-.8831.8831-1.3243,2.1083-1.3243,3.6758l-.5198-4.9505c.7921-1.5347,1.815-2.7265,3.0693-3.5768,1.2537-.8496,2.6399-1.2748,4.1585-1.2748,1.1714,0,2.2315.1696,3.1807.5074.9486.3385,1.7779.8379,2.4876,1.4975l-3.2921,4.4555c-.4455-.5446-1.0068-.9567-1.6832-1.2376Z"/>
    <path class="cls-1" d="M256.8797,437.9059h5.0496v5.0496h-5.0496v-5.0496ZM256.8797,448.203h5.0496v25.6933h-5.0496v-25.6933Z"/>
    <path class="cls-1" d="M278.6621,453.3268l9.0347-15.4209h5.6684l-11.9061,19.4804-9.6536,16.5101h-5.6684l12.5249-20.5695ZM278.8848,458.0793l-.7673-1.2376-11.6833-18.9358h5.6684l8.6882,14.6536.8168,1.3366,12.3021,20.0002h-5.6684l-9.3565-15.817Z"/>
  </g>
</svg>