<?xml version="1.0" encoding="UTF-8"?>
<svg id="logo_fr" xmlns="http://www.w3.org/2000/svg" viewBox="0 0 648 479.7834">
  <defs>
    <style>
      .cls-1 {
        fill: #3b3b3b;
      }
    </style>
  </defs>
  <g>
    <path class="cls-1" d="M476.8861,112.0897c-9.79-16.0217-17.9134-32.8493-19.9587-37.1663-.18-.3799-.7267-.3498-.8578.0496-1.4983,4.5601-7.485,22.4631-14.6374,39.5815-.1333.319.1148.6654.4597.6414l11.3736-.7888c-2.2465,48.2861-28.8804,94.6581-70.4263,119.8356-59.299,36.6571-141.3059,29.6541-184.3671-28.3088-31.8579-41.1794-32.1463-101.9426-.7472-143.4919C239.3199,4.4972,325.6001-7.085,382.0026,35.9918c27.8422,20.6418,46.6662,53.0951,49.6751,87.7511.2108,1.9042,3.036,1.681,2.9329-.2525-2.7728-35.598-21.8513-69.12-50.2795-90.5791C326.195-12.2663,236.777-.6461,193.1444,59.053c-33.4283,43.4217-33.5047,107.4748-.3501,151.1023,39.0171,53.4965,110.5053,67.4891,170.4403,43.642,57.7908-21.9702,97.5114-78.7805,100.299-140.1022l12.9901-.9009c.3476-.0241.5441-.407.3624-.7043Z"/>
    <path class="cls-1" d="M251.999,167.1297v62.4105c-16.9241-8.9893-31.186-22.3382-41.2941-38.5291v-23.8814h41.2941Z"/>
    <path class="cls-1" d="M298.9902,141.0749v101.0555c-14.6992-.5144-28.6525-3.9738-41.307-9.7738v-91.2817h41.307Z"/>
    <path class="cls-1" d="M345.9814,109.426v123.9209c-12.693,5.4913-26.6464,8.6164-41.307,8.835V109.426h41.307Z"/>
    <path class="cls-1" d="M392.9726,74.832v119.5999c-10.4039,15.3551-24.6273,27.8938-41.3199,36.2658V74.832h41.3199Z"/>
  </g>
  <g>
    <g>
      <path class="cls-1" d="M5.4204,285.8948h18.4464v131.4755H5.4204v-131.4755ZM14.3723,285.8948h75.5035v17.5421H14.3723v-17.5421ZM14.3723,343.3136h65.5569v17.5421H14.3723v-17.5421ZM14.3723,399.8282h75.5035v17.5421H14.3723v-17.5421Z"/>
      <path class="cls-1" d="M100.4013,323.5109h18.4464v93.8594h-18.4464v-93.8594ZM157.368,360.494c0-6.6304-1.718-11.755-5.1541-15.372s-8.2599-5.4254-14.4677-5.4254c-6.0289,0-10.6857,1.5981-13.9704,4.7924-3.2866,3.1962-4.9281,7.686-4.9281,13.4731l-1.8989-18.0847c2.8935-5.6653,6.6756-10.037,11.3481-13.1114,4.6706-3.0744,9.8404-4.6116,15.5076-4.6116,10.1864,0,18.069,3.3318,23.6457,9.9918,5.5748,6.6618,8.3642,16.0815,8.3642,28.2573v56.9667h-18.4464v-56.8763Z"/>
      <path class="cls-1" d="M206.142,413.8438c-6.1488-3.2552-10.837-8.032-14.0608-14.3321-3.2257-6.2982-4.8376-13.9095-4.8376-22.8319v-10.5795c0-9.2822,1.551-17.2099,4.6568-23.7813,3.1039-6.5695,7.6094-11.5742,13.5183-15.0103,5.907-3.4361,13.021-5.1541,21.3399-5.1541,7.8354,0,14.5268,1.9598,20.074,5.8775,5.5453,3.9196,9.7795,9.5849,12.7045,16.9996,2.9231,7.4147,4.3855,16.3076,4.3855,26.6749v6.1488h-63.2963v-14.8294h45.7542c-.5425-7.6546-2.518-13.6087-5.9227-17.8586-3.4066-4.2499-7.973-6.3748-13.6991-6.3748-6.994,0-12.4037,2.292-16.231,6.8722-3.8292,4.5821-5.7419,11.063-5.7419,19.441v11.9359c0,7.7764,2.0483,13.7443,6.1488,17.9038,4.0986,4.1595,9.9152,6.2392,17.4517,6.2392,3.7369,0,7.4442-.7529,11.1221-2.2606,3.676-1.5058,6.9626-3.6169,9.8561-6.3296l12.1167,12.1167c-4.643,4.4621-9.8561,7.912-15.6432,10.3535-5.7871,2.4414-11.6056,3.6621-17.4517,3.6621-8.6806,0-16.0954-1.6276-22.2441-4.8829Z"/>
      <path class="cls-1" d="M275.3522,323.5109h18.4464v93.8594h-18.4464v-93.8594ZM320.8352,341.2339c-2.4728-1.0242-5.335-1.5372-8.5902-1.5372-5.848,0-10.3849,1.6138-13.6087,4.8376-3.2257,3.2257-4.8376,7.7017-4.8376,13.4279l-1.8989-18.0847c2.8935-5.6062,6.6304-9.9604,11.2125-13.0662,4.5802-3.1039,9.6439-4.6568,15.1911-4.6568,4.2794,0,8.1519.6191,11.6194,1.8537,3.4656,1.2364,6.4948,3.0606,9.0875,5.4706l-12.0263,16.2762c-1.6276-1.9893-3.6778-3.4951-6.1488-4.5212Z"/>
    </g>
    <g>
      <path class="cls-1" d="M416.8101,301.8093l-57.238,98.0189h59.0464v17.5421h-81.7427v-15.9145l57.6901-98.0189h-56.0625v-17.5421h78.3066v15.9145Z"/>
      <path class="cls-1" d="M431.4047,411.538c-5.7281-4.7924-8.5902-12.0715-8.5902-21.8372,0-9.2822,2.6223-16.2448,7.8668-20.8878,5.2446-4.6411,13.1704-6.9626,23.7813-6.9626h26.6749l1.2659,14.8294h-27.8504c-4.8238,0-8.4251,1.0713-10.8056,3.21-2.3824,2.1406-3.5717,5.4116-3.5717,9.8109,0,4.7629,1.5824,8.2894,4.7472,10.5795,3.1648,2.292,7.9711,3.4361,14.4225,3.4361,7.053,0,12.3114-.7529,15.7789-2.2606,3.4656-1.5058,5.1993-3.8568,5.1993-7.053l1.8989,13.2018c-1.6276,2.5319-3.6326,4.6116-6.0132,6.2392-2.3824,1.6276-5.1403,2.8483-8.2737,3.6621-3.1353.8138-6.6618,1.2207-10.5795,1.2207-11.5742,0-20.2253-2.3962-25.9515-7.1887ZM480.3237,357.8718c0-6.1488-1.6433-10.9255-4.9281-14.3321-3.2866-3.4047-7.9434-5.1089-13.9704-5.1089-3.7388,0-7.4009.5739-10.9864,1.718-3.5874,1.146-6.7679,2.7441-9.5397,4.7924l-13.4731-9.2232c3.556-4.2794,8.2423-7.6094,14.0608-9.9918,5.8166-2.3805,12.2819-3.5717,19.3958-3.5717,7.7764,0,14.4363,1.372,19.9836,4.1143,5.5453,2.7441,9.7657,6.7227,12.6593,11.9359,2.8935,5.215,4.3403,11.4995,4.3403,18.8533v60.3124h-17.5421v-59.4986Z"/>
      <path class="cls-1" d="M512.0083,323.5109h18.4464v93.8594h-18.4464v-93.8594ZM568.0708,360.494c0-6.6304-1.6276-11.755-4.8829-15.372-3.2552-3.6169-7.8668-5.4254-13.8348-5.4254-6.0289,0-10.6857,1.5981-13.9704,4.7924-3.2866,3.1962-4.9281,7.686-4.9281,13.4731l-1.8989-18.0847c2.8935-5.6653,6.6756-10.037,11.3481-13.1114,4.6706-3.0744,9.8404-4.6116,15.5076-4.6116,6.5695,0,12.1758,1.492,16.8187,4.476,4.6411,2.984,8.1833,7.34,10.6247,13.0662,2.4414,5.7281,3.6621,12.6298,3.6621,20.7069v56.9667h-18.4464v-56.8763ZM624.1333,360.494c0-6.6304-1.718-11.755-5.1541-15.372-3.4361-3.6169-8.2599-5.4254-14.4677-5.4254-5.7281,0-10.1588,1.7494-13.2922,5.2446-3.1353,3.497-4.702,8.4408-4.702,14.8294l-3.7074-18.0847c2.9526-6.2078,6.8565-11.0159,11.7098-14.4225,4.8515-3.4047,10.2021-5.1089,16.0501-5.1089,6.7504,0,12.5236,1.492,17.3161,4.476,4.7924,2.984,8.4389,7.34,10.9412,13.0662,2.5005,5.7281,3.7526,12.6298,3.7526,20.7069v56.9667h-18.4464v-56.8763Z"/>
    </g>
  </g>
  <g>
    <path class="cls-1" d="M5.4204,438.0279h5.0405v35.9258h-5.0405v-35.9258ZM8.8301,469.1603h8.129c2.6518,0,4.7069-.6875,6.1647-2.0631,1.4578-1.375,2.1867-3.3146,2.1867-5.8188v-10.5751c0-2.5036-.7289-4.4432-2.1867-5.8188-1.4578-1.375-3.5129-2.0631-6.1647-2.0631h-8.129v-4.7934h7.9808c2.8822,0,5.345.5028,7.3878,1.5072,2.0421,1.005,3.5988,2.4708,4.6699,4.3981,1.0705,1.9272,1.606,4.2498,1.606,6.9677v10.1798c0,2.7179-.5356,5.0405-1.606,6.9677-1.0711,1.9272-2.6314,3.3937-4.6822,4.3981-2.0508,1.005-4.5179,1.5072-7.4001,1.5072h-7.9561v-4.7934Z"/>
    <path class="cls-1" d="M38.1342,438.0279h5.0405v5.0405h-5.0405v-5.0405ZM38.1342,448.3065h5.0405v25.6472h-5.0405v-25.6472Z"/>
    <path class="cls-1" d="M65.931,448.3065h5.2629l-9.6362,25.6472h-3.8051l-9.6362-25.6472h5.2629l6.2759,18.3088,6.2759-18.3088Z"/>
    <path class="cls-1" d="M72.3057,468.6662h5.2876v5.2876h-5.2876v-5.2876Z"/>
    <path class="cls-1" d="M101.548,473.1754c-1.3262-.8154-2.3349-2.0051-3.0268-3.5703-.6918-1.5647-1.0377-3.4425-1.0377-5.6335v-5.6582c0-2.2071.3373-4.0929,1.013-5.6582.6752-1.5647,1.6592-2.755,2.9526-3.5703,1.2929-.8154,2.8452-1.2231,4.6575-1.2231,1.5152,0,2.9032.3953,4.1633,1.186,1.2601.7907,2.2769,1.9025,3.0515,3.3356l-.5189,5.2382c0-1.0872-.1977-2.0174-.593-2.792-.3953-.774-.9679-1.3627-1.7172-1.7666-.7499-.4034-1.6598-.6054-2.7303-.6054-1.6641,0-2.9526.5189-3.8668,1.5566s-1.3713,2.4955-1.3713,4.3734v5.5841c0,1.8618.4571,3.2986,1.3713,4.3116.9142,1.013,2.2027,1.5196,3.8668,1.5196,1.0705,0,1.9804-.21,2.7303-.6301.7493-.42,1.3219-1.0254,1.7172-1.8161s.593-1.7376.593-2.8415l.3459,5.4111c-.5108,1.2688-1.3466,2.3312-2.5079,3.1874s-2.5907,1.2848-4.2869,1.2848c-1.8778,0-3.4802-.4077-4.8058-1.2231ZM112.8026,438.0279h5.0405v35.9258h-5.0405v-35.9258Z"/>
    <path class="cls-1" d="M129.9254,472.9901c-1.6802-.8895-2.9613-2.1947-3.8421-3.9163-.8815-1.7209-1.3219-3.8008-1.3219-6.2388v-2.8909c0-2.5363.4237-4.7026,1.2725-6.4983.8481-1.7951,2.0792-3.1627,3.6939-4.1016,1.6141-.9389,3.558-1.4084,5.8312-1.4084,2.141,0,3.9694.5356,5.4852,1.606,1.5152,1.0711,2.6722,2.6191,3.4715,4.6452.7987,2.0261,1.1984,4.4561,1.1984,7.2889v1.6802h-17.2958v-4.0522h12.5024c-.1482-2.0916-.6881-3.7186-1.6184-4.8799-.9309-1.1613-2.1787-1.7419-3.7433-1.7419-1.9112,0-3.3894.6264-4.4351,1.8778-1.0464,1.2521-1.569,3.0231-1.569,5.3123v3.2615c0,2.1249.5596,3.7557,1.6802,4.8922,1.1199,1.1366,2.7093,1.7049,4.7687,1.7049,1.0211,0,2.0341-.2057,3.0391-.6177,1.0044-.4114,1.9025-.9883,2.6932-1.7296l3.3109,3.3109c-1.2688,1.2194-2.6932,2.162-4.2745,2.8291-1.5813.6671-3.1713,1.0007-4.7687,1.0007-2.372,0-4.3981-.4447-6.0782-1.3342Z"/>
    <path class="cls-1" d="M172.016,472.7554c-1.8865-1.0458-3.3233-2.5697-4.3116-4.571s-1.4825-4.4104-1.4825-7.2272v-22.9293h5.0405v23.1022c0,2.6191.6585,4.6452,1.9767,6.0782,1.3176,1.4331,3.1787,2.1496,5.5841,2.1496,2.4214,0,4.2949-.7165,5.6211-2.1496,1.3256-1.4331,1.989-3.4592,1.989-6.0782v-23.1022h5.0405v22.9293c0,2.8167-.4942,5.2258-1.4825,7.2272-.9883,2.0014-2.4301,3.5253-4.324,4.571-1.8945,1.0464-4.1757,1.569-6.8442,1.569-2.6524,0-4.9213-.5226-6.8071-1.569Z"/>
    <path class="cls-1" d="M204.0874,472.6689c-1.8865-1.1032-3.348-2.6685-4.3857-4.6946s-1.5566-4.3734-1.5566-7.0419v-9.8586c0-2.6685.5189-5.0158,1.5566-7.0419s2.4992-3.5951,4.3857-4.7069c1.8859-1.1119,4.0725-1.6678,6.56-1.6678,2.0588,0,3.9533.441,5.6829,1.3219,1.7296.8815,3.175,2.1292,4.3363,3.7433,1.1613,1.6147,1.9476,3.4839,2.3596,5.6088h-5.164c-.3132-1.1199-.8364-2.1206-1.569-3.0021-.7332-.8809-1.5937-1.5603-2.582-2.0384-.9883-.4775-2.01-.7165-3.0638-.7165-1.4664,0-2.7513.3546-3.8545,1.0625-1.1038.7085-1.9606,1.7012-2.5697,2.9773-.6097,1.2768-.9142,2.7636-.9142,4.4598v9.8586c0,1.6802.3045,3.1627.9142,4.4475.6091,1.2848,1.4658,2.2775,2.5697,2.9773,1.1032.7005,2.3881,1.0501,3.8545,1.0501,1.0705,0,2.0959-.2224,3.0762-.6671.9797-.4447,1.8364-1.1032,2.5697-1.9767.7326-.8728,1.2558-1.9106,1.569-3.1132h5.164c-.412,2.1249-1.2027,3.9947-2.372,5.6088-1.1699,1.6147-2.6191,2.8625-4.3487,3.7433-1.7296.8815-3.6161,1.3219-5.6582,1.3219-2.4875,0-4.6742-.5516-6.56-1.6555Z"/>
    <path class="cls-1" d="M227.7208,448.3065h11.5635v4.5463h-11.5635v-4.5463ZM231.8101,472.36c-.9636-1.1446-1.4454-2.8371-1.4454-5.0776v-26.4379h5.0405v26.4873c0,.6264.1235,1.1082.3706,1.4454.2471.3379.6091.5065,1.0872.5065h2.4214v4.7934h-2.9156c-2.0755,0-3.5951-.572-4.5587-1.7172Z"/>
    <path class="cls-1" d="M246.2026,448.3065h5.0405v25.6472h-5.0405v-25.6472ZM258.6309,453.1494c-.6758-.2798-1.4578-.42-2.3473-.42-1.598,0-2.8377.441-3.7186,1.3219-.8815.8815-1.3219,2.1045-1.3219,3.6692l-.5189-4.9417c.7907-1.5319,1.8117-2.7216,3.0638-3.5703,1.2515-.8481,2.6351-1.2725,4.151-1.2725,1.1693,0,2.2275.1693,3.175.5065.9469.3379,1.7747.8364,2.4832,1.4949l-3.2862,4.4475c-.4447-.5436-1.005-.955-1.6802-1.2354Z"/>
    <path class="cls-1" d="M267.7977,438.0279h5.0405v5.0405h-5.0405v-5.0405ZM267.7977,448.3065h5.0405v25.6472h-5.0405v-25.6472Z"/>
    <path class="cls-1" d="M289.541,453.4211l9.0185-15.3933h5.6582l-11.8847,19.4454-9.6362,16.4804h-5.6582l12.5024-20.5326ZM289.7633,458.1651l-.766-1.2354-11.6623-18.9018h5.6582l8.6726,14.6273.8154,1.3342,12.28,19.9643h-5.6582l-9.3397-15.7886Z"/>
  </g>
</svg>